<svg width="25" height="25" viewBox="0 0 25 25" fill="none" xmlns="http://www.w3.org/2000/svg">
<path d="M4.5 19.5V17.5H6.5V10.5C6.5 9.11667 6.91667 7.89167 7.75 6.825C8.58333 5.74167 9.66667 5.03333 11 4.7V4C11 3.58333 11.1417 3.23333 11.425 2.95C11.725 2.65 12.0833 2.5 12.5 2.5C12.9167 2.5 13.2667 2.65 13.55 2.95C13.85 3.23333 14 3.58333 14 4V4.7C15.3333 5.03333 16.4167 5.74167 17.25 6.825C18.0833 7.89167 18.5 9.11667 18.5 10.5V17.5H20.5V19.5H4.5ZM12.5 22.5C11.95 22.5 11.475 22.3083 11.075 21.925C10.6917 21.525 10.5 21.05 10.5 20.5H14.5C14.5 21.05 14.3 21.525 13.9 21.925C13.5167 22.3083 13.05 22.5 12.5 22.5ZM8.5 17.5H16.5V10.5C16.5 9.4 16.1083 8.45833 15.325 7.675C14.5417 6.89167 13.6 6.5 12.5 6.5C11.4 6.5 10.4583 6.89167 9.675 7.675C8.89167 8.45833 8.5 9.4 8.5 10.5V17.5Z" fill="#1D1B20"/>
</svg>
