<svg width="42" height="35" viewBox="0 0 42 35" fill="none" xmlns="http://www.w3.org/2000/svg">
<g clip-path="url(#clip0_660_17860)">
<path d="M41.5447 0.0125L37.0215 7.49286L32.9358 14.2446H32.8215L24.709 14.2321L28.8126 7.44821L32.9554 0.601786L33.3161 0L41.5447 0.0125Z" fill="#1976D2"/>
<path d="M32.8088 28.0706L31.9803 29.4456L28.666 34.917L25.4374 29.4384L24.5999 28.0259L20.5338 21.142L16.4678 14.2509L16.4803 14.2188L24.6392 14.2312L24.6696 14.2956L28.7428 21.1795L32.8088 28.0706Z" fill="#1976D2"/>
<path d="M25.0751 0.0125L20.5537 7.49286L16.468 14.2446H16.3537L8.24121 14.2321L12.3448 7.44821L16.4876 0.601786L16.8484 0L25.0751 0.0125Z" fill="#1976D2"/>
<path d="M16.3411 28.0706L15.5107 29.4456L12.1982 34.917L8.96964 29.4384L8.13214 28.0259L4.06607 21.142L0 14.2509L0.0125 14.2188L8.17143 14.2312L8.20179 14.2956L12.275 21.1795L16.3411 28.0706Z" fill="#1976D2"/>
</g>
<defs>
<clipPath id="clip0_660_17860">
<rect width="42" height="35" fill="white"/>
</clipPath>
</defs>
</svg>
