<svg width="24" height="24" viewBox="0 0 24 24" fill="none" xmlns="http://www.w3.org/2000/svg">
<path d="M22.5011 12.2336C22.5011 11.3702 22.4296 10.7402 22.2749 10.0869H12.2154V13.9835H18.1201C18.0011 14.9519 17.3582 16.4102 15.9296 17.3902L15.9096 17.5206L19.0902 19.9354L19.3106 19.9569C21.3344 18.1252 22.5011 15.4302 22.5011 12.2336Z" fill="#4285F4"/>
<path d="M12.2147 22.4996C15.1075 22.4996 17.536 21.5662 19.3099 19.9562L15.9289 17.3895C15.0242 18.0078 13.8099 18.4395 12.2147 18.4395C9.38136 18.4395 6.97663 16.6079 6.11941 14.0762L5.99376 14.0866L2.6865 16.595L2.64325 16.7128C4.40513 20.1428 8.02417 22.4996 12.2147 22.4996Z" fill="#34A853"/>
<path d="M6.12003 14.0765C5.89385 13.4232 5.76295 12.7231 5.76295 11.9998C5.76295 11.2764 5.89385 10.5764 6.10813 9.92313L6.10214 9.78398L2.75343 7.23535L2.64387 7.28642C1.91771 8.70977 1.50104 10.3081 1.50104 11.9998C1.50104 13.6915 1.91771 15.2897 2.64387 16.7131L6.12003 14.0765Z" fill="#FBBC05"/>
<path d="M12.2147 5.55997C14.2266 5.55997 15.5837 6.41163 16.3576 7.12335L19.3814 4.23C17.5243 2.53834 15.1075 1.5 12.2147 1.5C8.0242 1.5 4.40514 3.85665 2.64325 7.28662L6.10753 9.92332C6.97665 7.39166 9.3814 5.55997 12.2147 5.55997Z" fill="#EB4335"/>
</svg>
