<svg width="42" height="35" viewBox="0 0 42 35" fill="none" xmlns="http://www.w3.org/2000/svg">
<g clip-path="url(#clip0_660_15651)">
<path d="M41.5447 0.0125L37.0215 7.49286L32.9358 14.2446H32.8215L24.709 14.2321L28.8126 7.44821L32.9554 0.601786L33.3161 0L41.5447 0.0125Z" fill="#8DDB90"/>
<path d="M32.8088 28.0715L31.9803 29.4465L28.666 34.9179L25.4374 29.4394L24.5999 28.0269L20.5338 21.1429L16.4678 14.2519L16.4803 14.2197L24.6392 14.2322L24.6696 14.2965L28.7428 21.1804L32.8088 28.0715Z" fill="#8DDB90"/>
<path d="M25.0751 0.0125L20.5537 7.49286L16.468 14.2446H16.3537L8.24121 14.2321L12.3448 7.44821L16.4876 0.601786L16.8484 0L25.0751 0.0125Z" fill="#8DDB90"/>
<path d="M16.3411 28.0715L15.5107 29.4465L12.1982 34.9179L8.96964 29.4394L8.13214 28.0269L4.06607 21.1429L0 14.2519L0.0125 14.2197L8.17143 14.2322L8.20179 14.2965L12.275 21.1804L16.3411 28.0715Z" fill="#8DDB90"/>
</g>
<defs>
<clipPath id="clip0_660_15651">
<rect width="42" height="35" fill="white"/>
</clipPath>
</defs>
</svg>
