<svg width="24" height="24" viewBox="0 0 24 24" fill="none" xmlns="http://www.w3.org/2000/svg">
<path d="M11.8 1C8.7673 1 6.3 3.4673 6.3 6.5V8.7H5.2C3.9867 8.7 3 9.6867 3 10.9V20.8C3 22.0133 3.9867 23 5.2 23H18.4C19.6133 23 20.6 22.0133 20.6 20.8V10.9C20.6 9.6867 19.6133 8.7 18.4 8.7H17.3V6.5C17.3 3.4673 14.8327 1 11.8 1ZM8.5 6.5C8.5 4.6806 9.9806 3.2 11.8 3.2C13.6194 3.2 15.1 4.6806 15.1 6.5V8.7H8.5V6.5ZM18.4022 20.8H12.9V18.2942C13.5545 17.9125 14 17.2107 14 16.4C14 15.1867 13.0133 14.2 11.8 14.2C10.5867 14.2 9.6 15.1867 9.6 16.4C9.6 17.2096 10.0455 17.9125 10.7 18.2942V20.8H5.2V10.9H18.4L18.4022 20.8Z" fill="#5A5D63"/>
</svg>
