<svg width="40" height="40" viewBox="0 0 40 40" fill="none" xmlns="http://www.w3.org/2000/svg">
<path d="M20.0002 36.6654C17.7224 36.6654 15.5696 36.2279 13.5418 35.3529C11.5141 34.4779 9.74322 33.2834 8.22933 31.7695C6.71544 30.2556 5.521 28.4848 4.646 26.457C3.771 24.4293 3.3335 22.2765 3.3335 19.9987C3.3335 17.6931 3.771 15.5334 4.646 13.5195C5.521 11.5056 6.71544 9.74175 8.22933 8.22786C9.74322 6.71398 11.5141 5.51953 13.5418 4.64453C15.5696 3.76953 17.7224 3.33203 20.0002 3.33203C20.4724 3.33203 20.8682 3.49175 21.1877 3.8112C21.5071 4.13064 21.6668 4.52648 21.6668 4.9987C21.6668 5.47092 21.5071 5.86675 21.1877 6.1862C20.8682 6.50564 20.4724 6.66536 20.0002 6.66536C16.3057 6.66536 13.1599 7.96398 10.5627 10.5612C7.96544 13.1584 6.66683 16.3043 6.66683 19.9987C6.66683 23.6931 7.96544 26.839 10.5627 29.4362C13.1599 32.0334 16.3057 33.332 20.0002 33.332C23.6946 33.332 26.8404 32.0334 29.4377 29.4362C32.0349 26.839 33.3335 23.6931 33.3335 19.9987C33.3335 19.5265 33.4932 19.1306 33.8127 18.8112C34.1321 18.4918 34.5279 18.332 35.0002 18.332C35.4724 18.332 35.8682 18.4918 36.1877 18.8112C36.5071 19.1306 36.6668 19.5265 36.6668 19.9987C36.6668 22.2765 36.2293 24.4293 35.3543 26.457C34.4793 28.4848 33.2849 30.2556 31.771 31.7695C30.2571 33.2834 28.4932 34.4779 26.4793 35.3529C24.4654 36.2279 22.3057 36.6654 20.0002 36.6654Z" fill="white"/>
</svg>
