<svg width="25" height="25" viewBox="0 0 25 25" fill="none" xmlns="http://www.w3.org/2000/svg">
<path d="M16.5 7.5C16.5 8.56087 16.0786 9.57828 15.3284 10.3284C14.5783 11.0786 13.5609 11.5 12.5 11.5C11.4391 11.5 10.4217 11.0786 9.67157 10.3284C8.92143 9.57828 8.5 8.56087 8.5 7.5C8.5 6.43913 8.92143 5.42172 9.67157 4.67157C10.4217 3.92143 11.4391 3.5 12.5 3.5C13.5609 3.5 14.5783 3.92143 15.3284 4.67157C16.0786 5.42172 16.5 6.43913 16.5 7.5V7.5ZM12.5 14.5C10.6435 14.5 8.86301 15.2375 7.55025 16.5503C6.2375 17.863 5.5 19.6435 5.5 21.5H19.5C19.5 19.6435 18.7625 17.863 17.4497 16.5503C16.137 15.2375 14.3565 14.5 12.5 14.5V14.5Z" stroke="#8DDB90" stroke-width="2" stroke-linecap="round" stroke-linejoin="round"/>
</svg>
