<svg width="119" height="40" viewBox="0 0 119 40" fill="none" xmlns="http://www.w3.org/2000/svg">
<rect x="0.5" y="0.5" width="118" height="39" rx="3.5" fill="#F8F8FD"/>
<rect x="0.5" y="0.5" width="118" height="39" rx="3.5" stroke="#8DDB90" stroke-dasharray="12 12"/>
<g clip-path="url(#clip0_2424_180978)">
<path d="M37.5018 16.6668L33.1684 21.0001C32.9032 21.2654 32.7542 21.6251 32.7542 22.0001C32.7542 22.3752 32.9032 22.7349 33.1684 23.0001C33.4336 23.2654 33.7933 23.4144 34.1684 23.4144C34.5435 23.4144 34.9032 23.2654 35.1684 23.0001L39.5018 18.6668C40.0322 18.1364 40.3302 17.417 40.3302 16.6668C40.3302 15.9167 40.0322 15.1972 39.5018 14.6668C38.9713 14.1364 38.2519 13.8384 37.5018 13.8384C36.7516 13.8384 36.0322 14.1364 35.5018 14.6668L31.1684 19.0001C30.3728 19.7958 29.9258 20.8749 29.9258 22.0001C29.9258 23.1254 30.3728 24.2045 31.1684 25.0001C31.9641 25.7958 33.0432 26.2428 34.1684 26.2428C35.2936 26.2428 36.3728 25.7958 37.1684 25.0001L41.5018 20.6668" stroke="#8DDB90" stroke-width="2" stroke-linecap="round" stroke-linejoin="round"/>
</g>
<path d="M66.731 16.566L64.323 24H62.307L59.836 16.566H61.404L63.434 23.363H63.196L65.163 16.566H66.731ZM68.0892 24V16.566H69.5872V24H68.0892ZM68.8452 15.026C68.5839 15.026 68.3576 14.956 68.1662 14.816C67.9796 14.6713 67.8862 14.473 67.8862 14.221C67.8862 13.9737 67.9796 13.78 68.1662 13.64C68.3576 13.4953 68.5839 13.423 68.8452 13.423C69.1019 13.423 69.3236 13.4953 69.5102 13.64C69.7016 13.78 69.7972 13.9737 69.7972 14.221C69.7972 14.473 69.7016 14.6713 69.5102 14.816C69.3236 14.956 69.1019 15.026 68.8452 15.026ZM72.1482 20.815V19.632H77.6222L77.4122 19.982C77.4122 19.954 77.4122 19.926 77.4122 19.898C77.4122 19.8653 77.4122 19.8373 77.4122 19.814C77.4122 19.436 77.3306 19.0883 77.1672 18.771C77.0039 18.449 76.7589 18.1923 76.4322 18.001C76.1102 17.805 75.7066 17.707 75.2212 17.707C74.7359 17.707 74.3089 17.812 73.9402 18.022C73.5762 18.2273 73.2916 18.5213 73.0862 18.904C72.8856 19.282 72.7852 19.737 72.7852 20.269C72.7852 20.8103 72.8832 21.277 73.0792 21.669C73.2752 22.0563 73.5576 22.355 73.9262 22.565C74.2949 22.775 74.7359 22.88 75.2492 22.88C75.6086 22.88 75.9189 22.845 76.1802 22.775C76.4462 22.7003 76.6632 22.6023 76.8312 22.481C77.0039 22.3597 77.1346 22.229 77.2232 22.089C77.3119 21.9443 77.3632 21.802 77.3772 21.662H78.8892C78.8612 21.9653 78.7609 22.2663 78.5882 22.565C78.4202 22.859 78.1799 23.1273 77.8672 23.37C77.5592 23.608 77.1812 23.7993 76.7332 23.944C76.2899 24.084 75.7789 24.154 75.2002 24.154C74.4256 24.154 73.7466 23.9907 73.1632 23.664C72.5799 23.3373 72.1249 22.8847 71.7982 22.306C71.4716 21.7227 71.3082 21.0553 71.3082 20.304C71.3082 19.5387 71.4739 18.8667 71.8052 18.288C72.1366 17.7093 72.5962 17.259 73.1842 16.937C73.7722 16.6103 74.4466 16.447 75.2072 16.447C75.9819 16.447 76.6516 16.6103 77.2162 16.937C77.7856 17.2637 78.2242 17.714 78.5322 18.288C78.8402 18.862 78.9942 19.5223 78.9942 20.269C78.9942 20.3577 78.9919 20.4603 78.9872 20.577C78.9826 20.6937 78.9756 20.773 78.9662 20.815H72.1482ZM86.5016 24L84.5976 16.566H85.8296L87.6566 23.447H87.3976L88.5876 16.566H90.1626L88.5946 24H86.5016ZM81.4266 24L79.8516 16.566H81.4266L82.6306 23.447H82.3646L84.1776 16.566H85.4096L83.5336 24H81.4266Z" fill="#515B6F"/>
<defs>
<clipPath id="clip0_2424_180978">
<rect width="16" height="16" fill="white" transform="translate(27.5 12)"/>
</clipPath>
</defs>
</svg>
