<svg width="25" height="24" viewBox="0 0 25 24" fill="none" xmlns="http://www.w3.org/2000/svg">
<path d="M12.5 0.959961C6.41267 0.959961 1.46003 5.9126 1.46003 12C1.46003 13.9008 1.95107 15.7699 2.88227 17.4192L1.47779 22.4304C1.43171 22.595 1.47635 22.7716 1.59539 22.894C1.68707 22.9886 1.81187 23.04 1.94003 23.04C1.97843 23.04 2.01731 23.0352 2.05523 23.026L7.28531 21.7305C8.88227 22.5878 10.6808 23.04 12.5 23.04C18.5874 23.04 23.54 18.0873 23.54 12C23.54 5.9126 18.5874 0.959961 12.5 0.959961ZM18.0536 15.8956C17.8175 16.5494 16.6847 17.146 16.1404 17.2262C15.6517 17.2977 15.0335 17.3284 14.3548 17.1153C13.9434 16.9857 13.4154 16.8139 12.7391 16.5254C9.89603 15.3129 8.03939 12.4862 7.89731 12.2995C7.75571 12.1128 6.74003 10.7822 6.74003 9.40508C6.74003 8.02796 7.47203 7.35068 7.73219 7.07036C7.99235 6.79004 8.29907 6.71996 8.48819 6.71996C8.67731 6.71996 8.86595 6.72236 9.03155 6.73004C9.20579 6.73868 9.43955 6.66428 9.66947 7.21052C9.90563 7.77116 10.4725 9.14828 10.5426 9.28892C10.6136 9.42908 10.6607 9.59276 10.5666 9.77948C10.4725 9.9662 10.4255 10.0828 10.2834 10.2465C10.1413 10.4102 9.98579 10.6113 9.85811 10.7371C9.71603 10.8768 9.56867 11.028 9.73379 11.3083C9.89891 11.5886 10.4677 12.5049 11.3106 13.247C12.393 14.2003 13.3064 14.496 13.5896 14.6361C13.8728 14.7763 14.0384 14.7528 14.2036 14.566C14.3687 14.3788 14.912 13.7486 15.1007 13.4688C15.2893 13.1889 15.4784 13.235 15.7386 13.3286C15.9988 13.4217 17.3922 14.0985 17.6754 14.2387C17.9586 14.3788 18.1477 14.4489 18.2188 14.5656C18.2898 14.6817 18.2898 15.2424 18.0536 15.8956Z" fill="#33E03A"/>
</svg>
