<svg width="169" height="35" viewBox="0 0 169 35" fill="none" xmlns="http://www.w3.org/2000/svg">
<path d="M41.5446 0.0125L37.0214 7.49286L32.9357 14.2446H32.8214L24.7089 14.2321L28.8125 7.44821L32.9554 0.601786L33.3161 0L41.5446 0.0125Z" fill="#8DDB90"/>
<path d="M32.8089 28.0715L31.9804 29.4465L28.6661 34.9179L25.4375 29.4394L24.6 28.0269L20.5339 21.1429L16.4679 14.2519L16.4804 14.2197L24.6393 14.2322L24.6696 14.2965L28.7429 21.1804L32.8089 28.0715Z" fill="#8DDB90"/>
<path d="M25.075 0.0125L20.5536 7.49286L16.4679 14.2446H16.3536L8.24107 14.2321L12.3446 7.44821L16.4875 0.601786L16.8482 0L25.075 0.0125Z" fill="#8DDB90"/>
<path d="M16.3411 28.0715L15.5107 29.4465L12.1982 34.9179L8.96964 29.4394L8.13214 28.0269L4.06607 21.1429L0 14.2519L0.0125 14.2197L8.17143 14.2322L8.20179 14.2965L12.275 21.1804L16.3411 28.0715Z" fill="#8DDB90"/>
<path d="M52.3732 11.1379L58.2286 3.54152C58.2704 3.48627 58.3243 3.44141 58.3863 3.41045C58.4482 3.37946 58.5164 3.36321 58.5857 3.36295H60.9071C60.9916 3.36207 61.0746 3.38509 61.1466 3.42934C61.2186 3.47359 61.2764 3.53729 61.3138 3.61305C61.3512 3.68884 61.3662 3.77363 61.3575 3.85764C61.3487 3.94166 61.3164 4.0215 61.2643 4.08795L56.4607 10.2897C56.4061 10.361 56.3736 10.4468 56.3675 10.5364C56.3616 10.626 56.3821 10.7154 56.4268 10.7933L61.5036 19.4754C61.5434 19.5436 61.5646 19.6213 61.5648 19.7004C61.5652 19.7795 61.5446 19.8572 61.5054 19.9258C61.4661 19.9944 61.4095 20.0515 61.3411 20.0913C61.2727 20.131 61.1952 20.152 61.1161 20.1522H58.7607C58.682 20.1522 58.6046 20.1315 58.5364 20.0924C58.468 20.0533 58.4113 19.9969 58.3714 19.929L54.6804 13.5844C54.6436 13.5206 54.5916 13.4669 54.5293 13.428C54.4668 13.3891 54.3957 13.3662 54.3223 13.3612C54.2487 13.3563 54.1754 13.3695 54.1082 13.3997C54.0411 13.4299 53.9825 13.4761 53.9375 13.5344L51.6625 16.4469C51.6009 16.5259 51.5675 16.6234 51.5679 16.7237V19.7022C51.5679 19.8215 51.5204 19.936 51.4361 20.0204C51.3516 20.1049 51.2371 20.1522 51.1179 20.1522H49.0768C49.0177 20.1522 48.9593 20.1406 48.9048 20.1179C48.8504 20.0952 48.8009 20.0622 48.7593 20.0203C48.7175 19.9785 48.6846 19.9288 48.6621 19.8744C48.6398 19.8197 48.6284 19.7613 48.6286 19.7022V3.80937C48.6284 3.75036 48.6398 3.69188 48.6621 3.6373C48.6846 3.58271 48.7175 3.53309 48.7593 3.49129C48.8009 3.44946 48.8504 3.41629 48.9048 3.39366C48.9593 3.37102 49.0177 3.35938 49.0768 3.35938H51.1179C51.2371 3.35938 51.3516 3.40679 51.4361 3.49116C51.5204 3.57555 51.5679 3.69002 51.5679 3.80937V10.8647C51.5673 10.9588 51.5964 11.0506 51.6511 11.1272C51.7057 11.2039 51.783 11.2614 51.8721 11.2916C51.9611 11.3218 52.0575 11.3232 52.1475 11.2957C52.2373 11.2681 52.3164 11.2129 52.3732 11.1379Z" fill="white"/>
<path d="M63.6446 18.5428V3.57494C63.6446 3.33387 63.7403 3.10269 63.9109 2.93223C64.0812 2.76177 64.3125 2.66602 64.5536 2.66602H65.675C65.9161 2.66602 66.1473 2.76177 66.3177 2.93223C66.4882 3.10269 66.5839 3.33387 66.5839 3.57494V8.6928C66.5837 8.81275 66.6073 8.93155 66.6534 9.0423C66.6995 9.15305 66.7669 9.25355 66.8523 9.33796C66.9375 9.42236 67.0386 9.48898 67.1498 9.53396C67.2611 9.57893 67.38 9.60136 67.5 9.59994H73.1232C73.2425 9.60018 73.3607 9.57689 73.4709 9.53141C73.5812 9.48593 73.6814 9.41914 73.7659 9.33487C73.8502 9.25062 73.9171 9.15053 73.9628 9.04035C74.0086 8.93018 74.0321 8.81207 74.0321 8.6928V3.57494C74.0321 3.33387 74.1278 3.10269 74.2984 2.93223C74.4687 2.76177 74.7 2.66602 74.9411 2.66602H76.0625C76.3023 2.66789 76.5316 2.7645 76.7005 2.93475C76.8695 3.105 76.9643 3.3351 76.9643 3.57494V18.5428C76.9643 18.7839 76.8686 19.0151 76.698 19.1855C76.5277 19.356 76.2964 19.4517 76.0553 19.4517H74.9339C74.6928 19.4517 74.4616 19.356 74.2912 19.1855C74.1207 19.0151 74.025 18.7839 74.025 18.5428V13.241C74.025 13.1217 74.0014 13.0036 73.9557 12.8934C73.91 12.7833 73.843 12.6832 73.7587 12.5989C73.6743 12.5147 73.5741 12.4479 73.4637 12.4024C73.3536 12.3569 73.2353 12.3336 73.1161 12.3339H67.5C67.3809 12.3336 67.2627 12.3569 67.1525 12.4024C67.0425 12.4479 66.9423 12.5148 66.858 12.599C66.7737 12.6833 66.7069 12.7834 66.6614 12.8936C66.6159 13.0037 66.5927 13.1218 66.5928 13.241V18.5428C66.5928 18.7839 66.4971 19.0151 66.3266 19.1855C66.1562 19.356 65.925 19.4517 65.6839 19.4517H64.5536C64.3125 19.4517 64.0812 19.356 63.9109 19.1855C63.7403 19.0151 63.6446 18.7839 63.6446 18.5428Z" fill="white"/>
<path d="M87.4268 3.36621H84.9357C84.86 3.3661 84.7861 3.38939 84.7241 3.43285C84.6621 3.47632 84.615 3.53785 84.5893 3.60907L78.7929 19.6591C78.7729 19.7144 78.7664 19.7739 78.7741 19.8325C78.782 19.8909 78.8036 19.9466 78.8373 19.9948C78.8711 20.0432 78.9161 20.0826 78.9682 20.11C79.0205 20.1373 79.0786 20.1517 79.1375 20.1519H81.4071C81.4832 20.1517 81.5575 20.128 81.6196 20.0839C81.6816 20.0396 81.7284 19.9775 81.7536 19.9055L83.0232 16.2698L83.8964 13.7912L85.8018 8.37157V8.35014C85.8257 8.27614 85.8725 8.21164 85.9354 8.16589C85.9982 8.12014 86.0741 8.0955 86.1518 8.0955C86.2296 8.0955 86.3053 8.12014 86.3682 8.16589C86.4311 8.21164 86.4779 8.27614 86.5018 8.35014V8.36264L88.4321 13.7823L89.2857 16.2698L90.5553 19.9055C90.5805 19.9775 90.6273 20.0396 90.6893 20.0839C90.7514 20.128 90.8257 20.1517 90.9018 20.1519H93.2232C93.2823 20.1519 93.3405 20.1378 93.393 20.1107C93.4455 20.0834 93.4907 20.0439 93.5246 19.9957C93.5586 19.9473 93.5805 19.8914 93.5882 19.8328C93.5961 19.7742 93.5896 19.7146 93.5696 19.6591L87.7714 3.60907C87.7457 3.53814 87.6989 3.4768 87.6373 3.43335C87.5757 3.38993 87.5021 3.36648 87.4268 3.36621Z" fill="white"/>
<path d="M95.3982 3.99121C95.3982 3.82544 95.4641 3.66648 95.5813 3.54926C95.6986 3.43205 95.8575 3.36621 96.0232 3.36621H102.08C105.388 3.36621 107.407 5.08943 107.407 7.88943C107.407 9.32871 106.913 10.4519 105.954 11.1948C105.874 11.2572 105.812 11.3378 105.77 11.4297C105.729 11.5216 105.711 11.622 105.716 11.7226C105.722 11.8232 105.752 11.9209 105.804 12.0074C105.855 12.094 105.927 12.1668 106.013 12.2198C107.107 12.9198 107.661 14.0716 107.661 15.6126C107.661 18.4823 105.663 20.1591 102.195 20.1591H96.0232C95.8575 20.1591 95.6986 20.0932 95.5813 19.976C95.4641 19.8587 95.3982 19.6998 95.3982 19.5341V3.99121ZM98.3375 6.58585V9.9055C98.3375 10.0712 98.4034 10.2302 98.5205 10.3474C98.6379 10.4646 98.7968 10.5305 98.9625 10.5305H101.896C103.504 10.5305 104.396 9.6805 104.396 8.18764C104.396 6.74121 103.479 5.96085 101.825 5.96085H98.9679C98.8854 5.96014 98.8036 5.97578 98.727 6.00687C98.6505 6.03798 98.5811 6.08389 98.5225 6.142C98.4639 6.2001 98.4173 6.26925 98.3855 6.34543C98.3539 6.4216 98.3375 6.50332 98.3375 6.58585ZM98.3375 13.6359V16.9305C98.3375 17.0964 98.4032 17.2556 98.5205 17.3731C98.6377 17.4906 98.7966 17.5568 98.9625 17.5573H102.08C103.734 17.5573 104.652 16.7537 104.652 15.2359C104.652 13.8073 103.711 13.0091 102.08 13.0091H98.9625C98.8804 13.0091 98.7989 13.0253 98.7229 13.0568C98.647 13.0883 98.578 13.1345 98.52 13.1927C98.4618 13.251 98.4159 13.3201 98.3846 13.3961C98.3532 13.4722 98.3373 13.5536 98.3375 13.6359Z" fill="white"/>
<path d="M112.021 20.1516H110.691C110.585 20.1516 110.481 20.1307 110.383 20.0902C110.286 20.0498 110.197 19.9903 110.122 19.9155C110.048 19.8407 109.988 19.7519 109.948 19.6543C109.908 19.5566 109.887 19.4519 109.887 19.3462V4.16766C109.887 4.06198 109.908 3.95729 109.948 3.85959C109.988 3.76189 110.048 3.67309 110.122 3.59829C110.197 3.52348 110.286 3.46413 110.383 3.42364C110.481 3.38314 110.585 3.3623 110.691 3.3623H112.021C112.127 3.3623 112.232 3.38314 112.329 3.42364C112.427 3.46413 112.516 3.52348 112.59 3.59829C112.665 3.67309 112.724 3.76189 112.764 3.85959C112.805 3.95729 112.825 4.06198 112.825 4.16766V19.3462C112.825 19.4519 112.805 19.5566 112.764 19.6543C112.724 19.7519 112.665 19.8407 112.59 19.9155C112.516 19.9903 112.427 20.0498 112.329 20.0902C112.232 20.1307 112.127 20.1516 112.021 20.1516Z" fill="white"/>
<path d="M123.284 3.36621H134.787C134.955 3.36621 135.116 3.4328 135.234 3.55135C135.353 3.66991 135.42 3.83069 135.42 3.99835V5.44478C135.418 5.6115 135.351 5.77093 135.233 5.88832C135.114 6.00571 134.954 6.07157 134.787 6.07157H131.137C130.97 6.07157 130.809 6.13816 130.691 6.25671C130.572 6.37526 130.505 6.53605 130.505 6.70371V19.5162C130.505 19.6839 130.439 19.8446 130.32 19.9632C130.202 20.0817 130.041 20.1484 129.873 20.1484H128.198C128.031 20.1484 127.87 20.0817 127.751 19.9632C127.633 19.8446 127.566 19.6839 127.566 19.5162V6.70728C127.567 6.62396 127.551 6.54137 127.519 6.46426C127.488 6.38716 127.441 6.31705 127.382 6.25798C127.323 6.19889 127.254 6.15201 127.177 6.12001C127.1 6.08803 127.017 6.07157 126.934 6.07157H123.284C123.117 6.07157 122.956 6.00521 122.838 5.88705C122.719 5.76889 122.652 5.60855 122.652 5.44121V3.99478C122.653 3.82775 122.72 3.66787 122.838 3.55009C122.957 3.43232 123.117 3.36621 123.284 3.36621Z" fill="white"/>
<path d="M137.209 19.7034V3.81052C137.209 3.69164 137.256 3.57763 137.34 3.49357C137.424 3.40952 137.538 3.3623 137.657 3.3623H147.186C147.305 3.3623 147.419 3.40952 147.503 3.49357C147.587 3.57763 147.634 3.69164 147.634 3.81052V5.62838C147.634 5.68714 147.622 5.74534 147.6 5.79963C147.577 5.85389 147.544 5.9032 147.502 5.94468C147.461 5.98614 147.411 6.019 147.357 6.04132C147.303 6.06366 147.244 6.07504 147.186 6.0748H140.596C140.538 6.0748 140.479 6.08639 140.425 6.10891C140.371 6.13145 140.321 6.16445 140.279 6.20607C140.238 6.2477 140.205 6.29711 140.182 6.35148C140.16 6.40586 140.148 6.46414 140.148 6.52302V9.94445C140.148 10.0633 140.195 10.1773 140.279 10.2614C140.364 10.3454 140.478 10.3927 140.596 10.3927H146.405C146.464 10.3924 146.522 10.4038 146.577 10.4261C146.631 10.4484 146.681 10.4813 146.722 10.5228C146.764 10.5643 146.797 10.6136 146.819 10.6678C146.842 10.7221 146.854 10.7803 146.854 10.8391V12.5391C146.854 12.6579 146.806 12.772 146.722 12.856C146.638 12.9401 146.524 12.9873 146.405 12.9873H140.596C140.538 12.9871 140.479 12.9984 140.425 13.0208C140.371 13.0431 140.321 13.0759 140.28 13.1174C140.238 13.1589 140.205 13.2082 140.182 13.2625C140.16 13.3168 140.148 13.3749 140.148 13.4337V16.9944C140.148 17.0532 140.16 17.1114 140.182 17.1657C140.205 17.22 140.238 17.2693 140.28 17.3108C140.321 17.3522 140.371 17.3851 140.425 17.4074C140.479 17.4297 140.538 17.4411 140.596 17.4409H147.186C147.305 17.4409 147.419 17.4881 147.503 17.5721C147.587 17.6562 147.634 17.7702 147.634 17.8891V19.7034C147.634 19.8223 147.587 19.9362 147.503 20.0203C147.419 20.1044 147.305 20.1516 147.186 20.1516H137.657C137.538 20.1516 137.424 20.1044 137.34 20.0203C137.256 19.9362 137.209 19.8223 137.209 19.7034Z" fill="white"/>
<path d="M161.709 19.348C160.427 20.0686 158.978 20.4382 157.507 20.4195C152.707 20.4195 149.402 16.8605 149.402 11.7391C149.402 6.61769 152.73 3.06055 157.53 3.06055C162.33 3.06055 165.68 6.61948 165.68 11.7391C165.68 14.1516 164.946 16.2177 163.637 17.732L164.621 18.832C164.727 18.9498 164.809 19.0873 164.861 19.2368C164.914 19.3861 164.936 19.5445 164.927 19.7025C164.918 19.8605 164.879 20.0154 164.81 20.158C164.741 20.3007 164.645 20.4284 164.527 20.5338C164.398 20.6484 164.248 20.7364 164.085 20.793C163.922 20.8497 163.75 20.8734 163.577 20.8634C163.405 20.8532 163.237 20.8093 163.082 20.7341C162.927 20.6588 162.788 20.5538 162.673 20.4248L161.709 19.348ZM161.616 15.4445C162.252 14.3159 162.584 13.0417 162.58 11.7463C162.58 11.0748 162.539 8.24805 160.402 6.74626C159.557 6.16951 158.553 5.87108 157.53 5.89269C154.454 5.89269 152.479 8.1659 152.479 11.748C152.479 14.032 153.28 15.782 154.657 16.748C155.782 17.5409 157.061 17.598 157.53 17.5998C158.34 17.6282 159.144 17.444 159.861 17.0656C160.577 16.6871 161.183 16.1276 161.616 15.4427V15.4445Z" fill="white"/>
<path d="M122.679 11.6074H116.607C116.311 11.6074 116.071 11.8473 116.071 12.1431V13.7503C116.071 14.0461 116.311 14.286 116.607 14.286H122.679C122.974 14.286 123.214 14.0461 123.214 13.7503V12.1431C123.214 11.8473 122.974 11.6074 122.679 11.6074Z" fill="white"/>
<path d="M87.8237 34.0084C87.727 34.0084 87.6487 33.9805 87.5893 33.9229C87.5298 33.8661 87.5 33.7991 87.5 33.722V27.6282C87.5 27.552 87.5279 27.485 87.5855 27.4273C87.6423 27.3705 87.7084 27.3418 87.7827 27.3418H90.3571C90.7189 27.3418 91.0427 27.4198 91.3282 27.5761C91.6127 27.7305 91.8359 27.9445 91.9979 28.2197C92.1614 28.493 92.2434 28.8 92.2434 29.1423C92.2434 29.4204 92.1921 29.6772 92.0907 29.9123C91.9884 30.1486 91.8452 30.3468 91.6593 30.5077C91.475 30.6695 91.2695 30.7886 91.0416 30.8648L90.7068 30.7605C90.9421 30.7811 91.1616 30.8564 91.3654 30.9875C91.568 31.1168 91.7318 31.2945 91.8564 31.5195C91.9802 31.7427 92.0443 32.0134 92.0498 32.3305C92.0573 32.6059 92.0721 32.8198 92.0945 32.9704C92.1168 33.122 92.1504 33.2364 92.195 33.3127C92.2396 33.3898 92.2962 33.4504 92.3661 33.495C92.4275 33.5322 92.4702 33.5861 92.4925 33.655C92.5148 33.7247 92.5075 33.7916 92.4702 33.8559C92.4452 33.9079 92.4079 33.9452 92.3586 33.9675C92.3113 33.9879 92.262 33.9972 92.2098 33.9972C92.1596 33.9972 92.1104 33.9852 92.0611 33.96C91.9718 33.9107 91.8805 33.8327 91.7895 33.7257C91.6973 33.6168 91.6202 33.4579 91.5588 33.2495C91.4993 33.0393 91.4695 32.7463 91.4695 32.3714C91.4695 32.1241 91.4295 31.9204 91.3505 31.7614C91.2705 31.6032 91.1691 31.4814 91.0454 31.3968C90.9207 31.3104 90.785 31.2498 90.6362 31.2145C90.4873 31.18 90.3461 31.1623 90.2121 31.1623H87.9948L88.0989 31.0284V33.722C88.0989 33.7991 88.0729 33.8661 88.0209 33.9229C87.9705 33.9805 87.9055 34.0084 87.8237 34.0084ZM87.9948 30.6379H90.3832C90.5989 30.6184 90.8018 30.5466 90.9934 30.4222C91.1839 30.2984 91.3375 30.1282 91.4546 29.9123C91.5737 29.6966 91.6332 29.4464 91.6332 29.1609C91.6332 28.7991 91.5104 28.4988 91.2648 28.2605C91.0213 28.0225 90.7032 27.9034 90.3088 27.9034H88.032L88.0989 27.7695V30.7718L87.9948 30.6379Z" fill="white" stroke="white"/>
<path d="M94.5736 27.3418H98.0705C98.1468 27.3418 98.2137 27.3697 98.2714 27.4236C98.3282 27.4784 98.357 27.5463 98.357 27.6282C98.357 27.71 98.3282 27.777 98.2714 27.8291C98.2137 27.8793 98.1468 27.9034 98.0705 27.9034H94.793L94.8898 27.7436V30.4184L94.7855 30.2955H97.6427C97.7171 30.2955 97.7823 30.3245 97.84 30.3811C97.8995 30.4388 97.9293 30.5039 97.9293 30.5784C97.9293 30.663 97.8995 30.7309 97.84 30.7829C97.7823 30.8332 97.7171 30.8573 97.6427 30.8573H94.8043L94.8898 30.7605V33.5025L94.8414 33.4466H98.0705C98.1468 33.4466 98.2137 33.4755 98.2714 33.5322C98.3282 33.5898 98.357 33.6568 98.357 33.733C98.357 33.815 98.3282 33.882 98.2714 33.9339C98.2137 33.9841 98.1468 34.0084 98.0705 34.0084H94.5736C94.4991 34.0084 94.4332 33.9805 94.3764 33.9229C94.3187 33.8661 94.2909 33.7991 94.2909 33.722V27.6282C94.2909 27.552 94.3187 27.485 94.3764 27.4273C94.4332 27.3705 94.4991 27.3418 94.5736 27.3418Z" fill="white" stroke="white"/>
<path d="M102.995 28.084L100.681 33.8354C100.653 33.9006 100.618 33.949 100.573 33.9806C100.53 34.0131 100.48 34.029 100.421 34.029C100.333 34.029 100.268 34.0056 100.223 33.9583C100.179 33.909 100.153 33.8493 100.145 33.7797C100.14 33.7481 100.143 33.709 100.156 33.6643L102.671 27.5147C102.701 27.4431 102.739 27.3938 102.787 27.3659C102.836 27.3361 102.892 27.3213 102.954 27.3213C103.018 27.3213 103.074 27.339 103.121 27.3734C103.168 27.4088 103.205 27.4552 103.233 27.5147L105.737 33.6383C105.749 33.6754 105.755 33.7127 105.755 33.7499C105.755 33.8391 105.727 33.909 105.67 33.9583C105.612 34.0056 105.545 34.029 105.469 34.029C105.407 34.029 105.351 34.0122 105.302 33.9768C105.254 33.9397 105.218 33.8931 105.194 33.8354L102.824 28.0468L102.995 28.084ZM101.232 32.0943L101.47 31.5325H104.424L104.535 32.0943H101.232Z" fill="white" stroke="white"/>
<path d="M111.224 33.4466C111.3 33.4466 111.367 33.4745 111.425 33.5284C111.482 33.5805 111.511 33.6457 111.511 33.722C111.511 33.8038 111.482 33.8725 111.425 33.9266C111.367 33.9814 111.3 34.0084 111.224 34.0084H107.824C107.742 34.0084 107.673 33.9805 107.619 33.9229C107.567 33.8661 107.541 33.7991 107.541 33.722V27.6282C107.541 27.552 107.569 27.485 107.627 27.4273C107.683 27.3705 107.757 27.3418 107.846 27.3418C107.921 27.3418 107.987 27.3705 108.047 27.4273C108.108 27.485 108.14 27.552 108.14 27.6282V33.6066L107.958 33.4466H111.224Z" fill="white" stroke="white"/>
<path d="M115.848 34.0084C115.759 34.0084 115.687 33.9805 115.633 33.9229C115.581 33.8661 115.554 33.7991 115.554 33.722V27.6543H116.142V33.722C116.142 33.7991 116.113 33.8661 116.057 33.9229C115.999 33.9805 115.93 34.0084 115.848 34.0084ZM113.583 27.8848C113.506 27.8848 113.439 27.8607 113.382 27.8105C113.324 27.7584 113.296 27.6914 113.296 27.6097C113.296 27.5332 113.324 27.47 113.382 27.4198C113.439 27.3677 113.506 27.3418 113.583 27.3418H118.114C118.19 27.3418 118.257 27.3677 118.315 27.4198C118.372 27.47 118.401 27.5352 118.401 27.617C118.401 27.7016 118.372 27.7677 118.315 27.8141C118.257 27.8616 118.19 27.8848 118.114 27.8848H113.583Z" fill="white" stroke="white"/>
<path d="M124.87 27.3232C124.952 27.3232 125.02 27.3531 125.075 27.4125C125.129 27.4722 125.156 27.5382 125.156 27.6099C125.156 27.6395 125.151 27.6693 125.142 27.6991C125.131 27.727 125.117 27.7568 125.101 27.7884L122.861 30.865L122.976 30.4929V33.7407C122.976 33.8179 122.947 33.8849 122.891 33.9416C122.833 33.9993 122.762 34.0272 122.679 34.0272C122.597 34.0272 122.528 33.9993 122.474 33.9416C122.422 33.8849 122.396 33.8179 122.396 33.7407V30.5598L122.441 30.7906L120.261 27.807C120.236 27.7772 120.217 27.7456 120.205 27.7102C120.192 27.6731 120.186 27.6395 120.186 27.6099C120.186 27.5261 120.218 27.4572 120.283 27.4052C120.35 27.3513 120.419 27.3232 120.491 27.3232C120.585 27.3232 120.664 27.3679 120.729 27.4572L122.776 30.2473L122.634 30.2288L124.624 27.4572C124.686 27.3679 124.768 27.3232 124.87 27.3232Z" fill="white" stroke="white"/>
<path d="M46.7859 24.3482L165.714 23.8662" stroke="white"/>
</svg>
